<svg width="41" height="45" viewBox="0 0 41 45" fill="none" xmlns="http://www.w3.org/2000/svg">
<path d="M39.7705 11.75L20.385 1L1 11.75M39.7705 11.75V33.25L20.385 44L1 33.25V11.75M39.7705 11.75L36.7779 13.4095M1 11.75L3.99262 13.4095M36.7779 13.4095L20.385 4.31901M36.7779 13.4095V31.5905L20.385 40.6815L3.99262 31.5905V13.4095M20.385 4.31901L3.99262 13.4095M20.385 4.31901V7.25614M20.385 7.25614L34.1293 14.8781V30.1219L20.385 37.7439L6.64067 30.1219V14.8781L20.385 7.25614Z" stroke="white" stroke-width="1.2" stroke-miterlimit="10"/>
<path d="M34.131 15.0983L20.3851 21.795L6.99167 15.0983" stroke="white" stroke-width="1.2"/>
<path d="M34.131 22.6368L20.3851 29.3335L6.99167 22.6368" stroke="white" stroke-width="1.2"/>
</svg>
