<svg width="25" height="25" viewBox="0 0 25 25" fill="none" xmlns="http://www.w3.org/2000/svg">
<g clip-path="url(#clip0_521_667)">
<path fill-rule="evenodd" clip-rule="evenodd" d="M17.2497 20.5655C17.4893 20.7267 17.798 20.767 18.0733 20.668C18.3486 20.5683 18.551 20.345 18.612 20.0743C19.2586 17.1875 20.827 9.88084 21.4156 7.25491C21.4602 7.05699 21.3858 6.8513 21.2221 6.71912C21.0584 6.58694 20.8315 6.54877 20.6291 6.62016C17.5093 7.71719 7.90145 11.1419 3.97437 12.5223C3.72511 12.61 3.56291 12.8376 3.5711 13.0871C3.58003 13.3373 3.75711 13.5543 4.01232 13.6271C5.77348 14.1276 8.08523 14.8238 8.08523 14.8238C8.08523 14.8238 9.16559 17.9233 9.72884 19.4996C9.79952 19.6975 9.96247 19.853 10.1775 19.9067C10.3918 19.9597 10.6209 19.9039 10.7809 19.7604C11.6857 18.949 13.0845 17.6943 13.0845 17.6943C13.0845 17.6943 15.7422 19.5455 17.2497 20.5655ZM9.0577 14.4322L10.307 18.3467L10.5845 15.8678C10.5845 15.8678 15.4111 11.7321 18.1626 9.37474C18.243 9.30547 18.2541 9.18955 18.1872 9.10826C18.1209 9.02697 17.9989 9.00789 17.9074 9.06302C14.7184 10.9977 9.0577 14.4322 9.0577 14.4322Z" fill="white"/>
</g>
<defs>
<clipPath id="clip0_521_667">
<rect width="17.8571" height="16.9643" fill="white" transform="translate(3.57129 4.46423)"/>
</clipPath>
</defs>
</svg>
