<svg width="25" height="25" viewBox="0 0 25 25" fill="none" xmlns="http://www.w3.org/2000/svg">
<path d="M20.8332 7.33112C20.22 7.60312 19.5609 7.78687 18.8693 7.86953C19.5753 7.44637 20.1175 6.77628 20.3728 5.97778C19.712 6.3697 18.9803 6.6542 18.2013 6.80753C17.5777 6.14295 16.689 5.72778 15.7055 5.72778C13.8172 5.72778 12.2861 7.2587 12.2861 9.14703C12.2861 9.41503 12.3163 9.67603 12.3746 9.92628C9.53275 9.7837 7.01325 8.42237 5.32675 6.35362C5.03242 6.85862 4.86375 7.44595 4.86375 8.07262C4.86375 9.25895 5.46742 10.3055 6.38492 10.9187C5.82442 10.9009 5.29717 10.7471 4.83617 10.491C4.83584 10.5053 4.83584 10.5196 4.83584 10.534C4.83584 12.1907 6.0145 13.5727 7.57875 13.8869C7.29184 13.965 6.98975 14.0068 6.67792 14.0068C6.45759 14.0068 6.24342 13.9853 6.03459 13.9454C6.46975 15.3039 7.7325 16.2925 9.22884 16.32C8.05859 17.2372 6.58425 17.7838 4.98217 17.7838C4.70617 17.7838 4.434 17.7676 4.1665 17.7359C5.67975 18.7062 7.47709 19.2724 9.40809 19.2724C15.6975 19.2724 19.1369 14.062 19.1369 9.54345C19.1369 9.3952 19.1336 9.24778 19.127 9.10103C19.7951 8.61903 20.3748 8.01678 20.8332 7.33112Z" fill="white"/>
</svg>
